<?xml version="1.0" standalone="no"?>
<!DOCTYPE svg PUBLIC "-//W3C//DTD SVG 20010904//EN"
 "http://www.w3.org/TR/2001/REC-SVG-20010904/DTD/svg10.dtd">
<svg version="1.0" xmlns="http://www.w3.org/2000/svg"
 width="300.000000pt" height="252.000000pt" viewBox="0 0 300.000000 252.000000"
 preserveAspectRatio="xMidYMid meet">

<g transform="translate(0.000000,252.000000) scale(0.100000,-0.100000)"
fill="#000000" stroke="none">
<path d="M1718 2453 c-2 -5 -1 -73 2 -153 l5 -145 40 0 c26 0 40 4 39 13 -1 6
-2 75 -2 152 l-2 140 -39 0 c-22 0 -41 -3 -43 -7z"/>
<path d="M1545 2345 c-5 -2 -27 -6 -49 -10 -40 -7 -86 -43 -86 -69 0 -11 8
-13 38 -9 20 3 44 12 53 19 20 18 59 18 59 0 0 -7 -20 -21 -44 -30 -95 -36
-121 -84 -69 -126 31 -24 71 -20 115 11 16 11 29 15 33 9 7 -12 45 -13 61 -2
16 10 -12 162 -34 183 -17 17 -59 30 -77 24z m25 -139 c0 -29 -13 -46 -35 -46
-34 0 -42 20 -15 42 27 22 50 23 50 4z"/>
<path d="M1306 2263 c-8 -16 -15 -22 -16 -15 0 15 -21 16 -54 1 l-24 -11 35
-97 c19 -52 36 -97 38 -100 5 -5 46 6 63 17 11 7 10 17 -2 53 -23 64 -21 110
4 116 14 4 20 14 20 34 0 24 -4 29 -25 29 -16 0 -29 -9 -39 -27z"/>
<path d="M1047 2226 c-20 -25 -26 -43 -22 -57 4 -13 2 -25 -5 -29 -18 -11 5
-50 29 -50 12 0 23 -11 30 -30 30 -87 73 -109 137 -69 32 20 33 21 18 44 -13
20 -20 23 -35 14 -16 -8 -22 -4 -41 36 -21 43 -21 45 -4 58 13 10 16 20 11 36
-6 19 -12 22 -34 18 -23 -5 -28 -1 -41 30 l-15 36 -28 -37z"/>
<path d="M902 2074 c-13 -9 -27 -26 -32 -39 -6 -16 -15 -22 -27 -19 -10 2 -29
-4 -42 -14 l-24 -19 58 -90 59 -90 33 19 c18 11 33 23 33 26 0 4 -16 32 -35
62 -40 63 -42 75 -15 90 17 9 24 5 52 -36 18 -25 38 -54 44 -62 11 -15 15 -15
39 -2 15 8 29 20 32 27 5 12 -69 129 -95 151 -22 17 -53 15 -80 -4z"/>
<path d="M1713 1989 c-50 -4 -129 -18 -175 -29 -94 -24 -228 -71 -228 -81 0
-4 22 -9 48 -11 133 -13 261 -127 262 -233 0 -23 -64 -132 -253 -430 -139
-220 -271 -430 -295 -467 l-42 -68 107 2 108 2 -97 5 -98 6 153 240 c84 132
209 329 277 438 69 108 146 230 171 270 208 329 220 350 207 358 -14 10 -15
10 -145 -2z"/>
<path d="M2093 1808 c-83 -134 -266 -424 -421 -668 l-111 -175 227 -3 c124 -1
230 -6 235 -11 5 -5 5 -60 2 -123 l-8 -114 -76 -50 c-106 -68 -202 -124 -212
-124 -5 0 -9 29 -9 65 l0 65 -79 0 c-43 0 -107 2 -142 5 -62 4 -62 4 -14 -5
28 -4 89 -9 138 -9 l87 -1 0 -70 c0 -38 2 -70 5 -70 16 0 133 66 214 121 103
68 255 208 333 306 152 192 232 440 199 618 -16 84 -62 176 -118 236 -49 53
-141 119 -166 119 -8 0 -46 -51 -84 -112z"/>
<path d="M664 1881 c-51 -31 -74 -68 -74 -118 0 -38 5 -50 34 -79 47 -47 100
-48 151 -3 20 18 43 45 51 60 14 28 19 69 8 69 -14 0 -64 -42 -64 -54 0 -21
-35 -47 -54 -40 -9 3 -16 9 -16 12 0 4 25 32 56 63 31 31 54 61 50 67 -8 14
-71 42 -93 42 -10 0 -32 -9 -49 -19z m50 -59 c3 -5 -8 -21 -23 -36 -29 -28
-29 -28 -36 -6 -4 12 -1 27 5 35 14 16 46 20 54 7z"/>
<path d="M465 1672 c-83 -70 -91 -163 -20 -211 63 -43 121 -26 173 50 19 27
23 43 19 77 -6 56 -12 60 -43 31 -17 -16 -24 -31 -21 -47 2 -13 -3 -32 -13
-44 -21 -27 -63 -18 -87 18 -19 30 -11 52 27 71 21 11 49 47 50 66 0 14 -65 6
-85 -11z"/>
<path d="M1034 1571 c-40 -24 -68 -64 -84 -118 l-13 -43 -127 0 -127 0 -28
-42 c-111 -167 -166 -327 -164 -476 1 -118 58 -258 135 -333 l31 -30 120 183
c65 101 130 201 143 223 13 22 80 126 149 230 69 105 131 204 138 220 28 72 3
163 -52 189 -44 21 -83 20 -121 -3z"/>
<path d="M2125 624 c-78 -40 -104 -95 -65 -134 24 -24 35 -25 90 -5 53 19 70
19 70 0 0 -18 -33 -37 -52 -30 -7 3 -29 -6 -47 -19 l-34 -25 27 -12 c59 -27
176 45 176 108 0 59 -49 77 -127 47 -46 -18 -59 -15 -50 11 4 8 19 15 34 15
15 0 39 9 53 20 21 17 23 21 10 30 -22 14 -51 12 -85 -6z"/>
<path d="M1900 499 c-58 -26 -90 -57 -90 -85 0 -21 2 -21 40 -12 23 6 40 16
40 24 0 20 47 41 61 27 7 -7 -8 -25 -50 -57 -45 -35 -61 -54 -61 -72 0 -27 32
-64 55 -64 27 0 84 28 96 47 8 13 20 18 38 15 14 -2 34 3 44 10 17 12 16 16
-8 66 -14 28 -25 57 -25 62 0 20 -49 60 -72 60 -13 0 -43 -10 -68 -21z m83
-120 c6 -21 -23 -59 -43 -59 -22 0 -22 32 0 56 29 29 36 30 43 3z"/>
<path d="M1726 408 c-9 -12 -16 -17 -16 -9 0 9 -9 11 -32 6 -18 -4 -36 -10
-40 -14 -4 -3 6 -49 21 -101 l29 -95 37 2 c21 2 40 4 42 6 1 2 -4 26 -12 53
-22 73 -20 102 9 110 17 4 25 14 28 35 4 26 2 29 -23 29 -17 0 -34 -8 -43 -22z"/>
<path d="M1127 363 c-13 -3 -17 -11 -14 -25 3 -11 16 -76 28 -144 23 -123 23
-124 50 -124 52 0 57 7 47 55 -14 67 -7 109 19 113 23 3 31 -16 48 -111 6 -37
6 -38 43 -31 20 4 39 8 41 10 9 8 -30 169 -46 186 -21 24 -74 23 -106 -2 l-25
-20 -8 48 c-8 41 -13 47 -34 49 -14 0 -33 -1 -43 -4z"/>
<path d="M1448 344 c-81 -43 -74 -164 11 -198 83 -33 181 21 181 100 0 42 -23
89 -49 104 -28 15 -112 12 -143 -6z m92 -54 c23 -23 26 -72 5 -90 -43 -36
-100 53 -59 94 20 21 30 20 54 -4z"/>
</g>
</svg>
